<?xml version="1.0" encoding="UTF-8"?>
<!DOCTYPE svg PUBLIC "-//W3C//DTD SVG 1.1//EN" "http://www.w3.org/Graphics/SVG/1.1/DTD/svg11.dtd">
<!-- Creator: CorelDRAW -->
<svg xmlns="http://www.w3.org/2000/svg" xml:space="preserve" width="2048px" height="2048px" style="shape-rendering:geometricPrecision; text-rendering:geometricPrecision; image-rendering:optimizeQuality; fill-rule:evenodd; clip-rule:evenodd"
viewBox="0 0 2048 2048"
 xmlns:xlink="http://www.w3.org/1999/xlink">
 <defs>
  <style type="text/css">
   <![CDATA[
    .fil5 {fill:none}
    .fil0 {fill:#767676}
    .fil1 {fill:#7A7A7A}
    .fil3 {fill:#888888}
    .fil4 {fill:#BFBFBF}
    .fil2 {fill:#7A7A7A;fill-rule:nonzero}
   ]]>
  </style>
 </defs>
 <g id="Layer_x0020_1">
  <metadata id="CorelCorpID_0Corel-Layer"/>
  <path class="fil0" d="M1217.9 872.037l0 64.389 -73.9477 0c-5.30079,35.2335 -19.1705,67.6548 -39.4111,95.0918l52.3052 52.304 -45.5303 45.5292 -52.3052 -52.304c-27.4323,20.2441 -59.8583,34.1079 -95.0906,39.4099l0 73.9477 -64.3878 0 0 -73.9477c-35.2335,-5.29961 -67.656,-19.1681 -95.0918,-39.4099l-52.3052 52.304 -45.5292 -45.5292 52.304 -52.304c-20.2429,-27.4347 -34.1079,-59.8595 -39.4111,-95.0918l-73.9477 0 0 -64.389 73.9477 0c5.30079,-35.2335 19.1705,-67.6548 39.4099,-95.0906l-52.304 -52.304 45.5303 -45.5315 52.3052 52.3052c27.4323,-20.2441 59.8595,-34.1079 95.0918,-39.4111l0 -73.9465 64.3878 0 0 73.9465c35.2335,5.29961 67.656,19.1705 95.0906,39.4111l52.3052 -52.3052 45.5303 45.5315 -52.304 52.304c20.2417,27.4323 34.1067,59.8583 39.4099,95.0906l73.9477 0zm-286.173 -96.5847c71.1213,0 128.777,57.6567 128.777,128.779 0,71.1225 -57.6556,128.778 -128.777,128.778 -71.1237,0 -128.779,-57.6556 -128.779,-128.778 0,-71.1225 57.6556,-128.779 128.779,-128.779z"/>
  <ellipse class="fil1" cx="1586.79" cy="485.053" rx="117.83" ry="117.83"/>
  <path class="fil2" d="M982.339 1344.27l31.7752 222.428 -67.6371 9.62481 -32.9303 -230.51c22.9288,1.28622 45.9355,0.791339 68.7922,-1.54252zm545.27 -781.776l-217.971 125.845c-11.7024,-19.3618 -25.0701,-37.9902 -40.0583,-55.7103l223.81 -129.216 34.2201 59.0811zm-976.026 -127.726l121.492 134.094c-15.2398,11.7768 -29.8855,24.6792 -43.7929,38.7579 -2.27599,2.30433 -4.50709,4.63583 -6.7193,6.97796l-121.508 -134.113 50.5288 -45.717zm96.2221 800.431l-143.864 158.224 -50.5288 -45.9815 147.226 -161.92c10.0347,12.3709 20.8205,24.3343 32.4166,35.7886 4.83071,4.77402 9.75709,9.38977 14.7508,13.8886z"/>
  <ellipse class="fil1" cx="467.003" cy="373.829" rx="117.83" ry="117.83"/>
  <ellipse class="fil1" cx="398.565" cy="1434.63" rx="117.83" ry="117.83"/>
  <ellipse class="fil1" cx="980.296" cy="1674.17" rx="117.83" ry="117.83"/>
  <polygon class="fil3" points="1512.46,1457.37 1430.65,1534.86 1151.71,1240.49 1233.45,1162.98 "/>
  <path class="fil4" d="M526.138 1002.69c13.4398,78.3934 49.4079,153.819 108.209,215.875 158.341,167.085 422.176,174.217 589.251,15.8894 104.993,-99.5032 146.776,-240.67 124.054,-373.305l-76.6194 13.2c18.4748,107.917 -15.5185,222.771 -100.922,303.733 -135.856,128.737 -350.515,122.962 -479.354,-13.0063 -47.8075,-50.478 -77.0788,-111.812 -87.9993,-175.585l-76.6194 13.2zm124.024 -373.244c-105.001,99.4607 -146.769,240.627 -124.024,373.244l76.6158 -13.2c-18.5079,-107.896 15.4595,-222.768 100.869,-303.677 135.891,-128.773 350.592,-123.056 479.416,12.8492 47.843,50.5052 77.0953,111.887 87.9946,175.687l76.6194 -13.2c-13.461,-78.43 -49.4292,-153.864 -108.268,-215.98 -158.294,-167.033 -422.087,-174.098 -589.222,-15.7228z"/>
  <path class="fil3" d="M1671.26 1575.88c34.3028,36.0981 32.7189,93.1997 -3.43111,127.422 -36.0331,34.2213 -93.0981,32.7012 -127.338,-3.48544l-263.498 -277.997c-34.1918,-36.1205 -32.674,-93.1548 3.39567,-127.386 36.1359,-34.2355 93.2056,-32.6835 127.42,3.41457l263.452 278.032z"/>
  <path class="fil3" d="M1348.26 1297.82c-5.27244,-30.6 -34.5189,-51.2587 -65.1178,-45.9863 -30.6047,5.2689 -51.2493,34.5307 -45.9768,65.1308 5.27126,30.6 34.5189,51.2622 65.1213,45.9898 30.6,-5.27244 51.2457,-34.5307 45.9733,-65.1343z"/>
 </g>
 <rect class="fil5" width="2048" height="2048"/>
</svg>
