<?xml version="1.0" encoding="UTF-8"?>
<!DOCTYPE svg PUBLIC "-//W3C//DTD SVG 1.1//EN" "http://www.w3.org/Graphics/SVG/1.1/DTD/svg11.dtd">
<!-- Creator: CorelDRAW -->
<svg xmlns="http://www.w3.org/2000/svg" xml:space="preserve" width="6.82666in" height="6.82666in" style="shape-rendering:geometricPrecision; text-rendering:geometricPrecision; image-rendering:optimizeQuality; fill-rule:evenodd; clip-rule:evenodd"
viewBox="0 0 6.82666 6.82666"
 xmlns:xlink="http://www.w3.org/1999/xlink"
 version="1.1">
 <defs>
  <style type="text/css">
   <![CDATA[
    .fil14 {fill:none}
    .fil8 {fill:#1E1D1D}
    .fil7 {fill:#262525}
    .fil4 {fill:#2E2D2C}
    .fil6 {fill:#353434}
    .fil13 {fill:#39B54A}
    .fil5 {fill:#3A3A3A}
    .fil3 {fill:#424143}
    .fil1 {fill:#595A5C}
    .fil10 {fill:#92AEB7}
    .fil9 {fill:#BCC8CE}
    .fil11 {fill:#BE1E2D}
    .fil2 {fill:#D3DADE}
    .fil0 {fill:#DDE2E4}
    .fil12 {fill:#FFDE17}
   ]]>
  </style>
 </defs>
 <g id="Layer_x0020_1">
  <metadata id="CorelCorpID_0Corel-Layer"/>
  <g id="_537069960">
   <g id="Guides">
   </g>
   <g id="Layer_2">
   </g>
   <g id="Layer_3">
   </g>
   <g id="Layer_4">
   </g>
   <g id="Layer_5">
   </g>
   <g id="Layer_6">
   </g>
   <g id="Layer_7">
   </g>
   <g id="Layer_8">
   </g>
   <g id="Layer_9">
   </g>
   <g id="Layer_10">
   </g>
   <g id="Layer_11">
   </g>
   <g id="Layer_12">
   </g>
   <g id="Layer_13">
   </g>
   <g id="Layer_14">
   </g>
   <g id="Layer_15">
   </g>
   <g id="Layer_16">
   </g>
   <g id="Layer_17">
   </g>
   <g id="Layer_18">
   </g>
   <g id="Layer_19">
   </g>
   <g id="Layer_20">
   </g>
   <g id="Layer_21">
   </g>
   <g id="Layer_22">
    <g>
     <g>
      <g>
       <g>
        <g>
         <g>
          <rect id="_537766824" class="fil0" x="1.39863" y="1.9401" width="4.0294" height="2.60417"/>
         </g>
        </g>
        <g>
         <g>
          <path id="_537767328" class="fil1" d="M5.49453 4.61076l-4.16239 0 0 -2.73717 4.16236 0 0 2.73717 3.14961e-005 0zm-4.02939 -0.133l3.89643 0 0 -2.47117 -3.89643 0 0 2.47117z"/>
         </g>
        </g>
       </g>
       <g>
        <g>
         <rect id="_537766416" class="fil2" x="3.41333" y="2.0066" width="1.95496" height="2.4712"/>
        </g>
       </g>
       <g>
        <g>
         <g>
          <polygon id="_537765720" class="fil3" points="5.49453,4.61076 3.41333,4.61076 3.41333,4.47776 5.36153,4.47776 5.36153,2.0066 3.41333,2.0066 3.41333,1.8736 5.49453,1.8736 "/>
         </g>
        </g>
       </g>
       <g>
        <g>
         <path id="_537765216" class="fil3" d="M5.71893 4.95306l-4.6112 0c-0.0956654,0 -0.173201,-0.0775315 -0.173201,-0.173201l0 -0.169098 4.9576 0 0 0.169098c0,0.0956339 -0.0775354,0.173201 -0.173201,0.173201z"/>
        </g>
       </g>
       <g>
        <g>
         <path id="_537765096" class="fil4" d="M5.71933 4.95306l-2.306 0 0 -0.342299 2.4788 0 0 0.1695c0,0.0954331 -0.0773661,0.172799 -0.172799,0.172799z"/>
        </g>
       </g>
       <g>
        <g>
         <rect id="_537764016" class="fil5" x="0.934535" y="4.61076" width="4.95759" height="0.116902"/>
        </g>
       </g>
       <g>
        <g>
         <rect id="_537764184" class="fil6" x="3.41333" y="4.61076" width="2.4788" height="0.116902"/>
        </g>
       </g>
       <g>
        <g>
         <rect id="_537763536" class="fil7" x="2.98513" y="4.61076" width="0.856398" height="0.116902"/>
        </g>
       </g>
       <g>
        <g>
         <rect id="_537763392" class="fil8" x="3.41333" y="4.61076" width="0.428201" height="0.116902"/>
        </g>
       </g>
      </g>
      <g>
       <g>
        <g>
         <rect id="_537762408" class="fil9" x="1.59767" y="2.3871" width="3.6341" height="1.95976"/>
        </g>
       </g>
       <g>
        <g>
         <g>
          <rect id="_537750624" class="fil10" x="1.59767" y="2.14267" width="3.6341" height="0.244433"/>
         </g>
        </g>
        <g>
         <g>
          <g>
           <path id="_537751176" class="fil11" d="M1.81143 2.30326l-0.0752992 0c-0.0149685,0 -0.0270984,-0.0121339 -0.0270984,-0.0270984l0 -0.0225c0,-0.0149685 0.0121339,-0.0270984 0.0270984,-0.0270984l0.0752992 -3.93701e-006c0.0149685,0 0.0270984,0.0121339 0.0270984,0.0270984l0 0.0225c0,0.014937 -0.0121339,0.0271024 -0.0270984,0.0271024z"/>
          </g>
         </g>
         <g>
          <g>
           <path id="_537747072" class="fil12" d="M2.0153 2.30326l-0.0752992 0c-0.0149685,0 -0.0270984,-0.0121339 -0.0270984,-0.0270984l0 -0.0225c0,-0.0149685 0.0121339,-0.0270984 0.0270984,-0.0270984l0.0752992 -3.93701e-006c0.0149685,0 0.0270984,0.0121339 0.0270984,0.0270984l0 0.0225c3.54331e-005,0.014937 -0.0121339,0.0271024 -0.0270984,0.0271024z"/>
          </g>
         </g>
         <g>
          <g>
           <path id="_537745368" class="fil13" d="M2.2192 2.30326l-0.0752992 0c-0.0149685,0 -0.0270984,-0.0121339 -0.0270984,-0.0270984l0 -0.0225c0,-0.0149685 0.0121339,-0.0270984 0.0270984,-0.0270984l0.0752992 -3.93701e-006c0.0149685,0 0.0270984,0.0121339 0.0270984,0.0270984l0 0.0225c3.93701e-006,0.014937 -0.0121299,0.0271024 -0.0270984,0.0271024z"/>
          </g>
         </g>
        </g>
       </g>
      </g>
     </g>
     <g>
      <g>
       <g>
        <g>
         <path id="_537068472" class="fil3" d="M2.37613 3.49403l0.143232 -0.0139331c3.14961e-005,0 3.14961e-005,0 6.69291e-005,3.14961e-005 0.00863386,0.0480669 0.0261339,0.0833661 0.0525,0.105902 0.0263661,0.0225315 0.0619685,0.0337992 0.106732,0.0337992 0.0474331,0 0.0831654,-0.0100315 0.107232,-0.0300984 0.0240315,-0.0200669 0.0360669,-0.0435315 0.0360669,-0.0703661 0,-0.0172323 -0.00506693,-0.0319016 -0.0151654,-0.044 -0.0101339,-0.0120984 -0.0277992,-0.0226339 -0.053,-0.0315669 -0.0172677,-0.0059685 -0.0565669,-0.0165669 -0.117933,-0.0318346 -0.0789685,-0.0195669 -0.134335,-0.0435984 -0.166201,-0.0720984 -0.0447992,-0.0400984 -0.0671654,-0.0890315 -0.0671654,-0.146701 0,-0.0371339 0.0105315,-0.0718661 0.0315984,-0.104201 0.0210669,-0.0323346 0.0514016,-0.0569331 0.0910669,-0.0738661 0.0396339,-0.0169016 0.0875,-0.0253661 0.143567,-0.0253661 0.0915669,0 0.160469,0.0200669 0.206732,0.0601654 0.0462677,0.0400984 0.0705669,0.0936654 0.0729016,0.160598 0,0 0,3.14961e-005 -3.14961e-005,3.14961e-005l-0.147232 0.0064685c-3.14961e-005,0 -3.14961e-005,0 -3.14961e-005,-3.14961e-005 -0.00629921,-0.0374331 -0.0198346,-0.0643661 -0.0405315,-0.0807677 -0.0207323,-0.0164016 -0.0518346,-0.0246339 -0.0932992,-0.0246339 -0.0427992,0 -0.0762992,0.00879921 -0.1005,0.0263661 -0.0155984,0.0112677 -0.0234016,0.0263661 -0.0234016,0.0452677 0,0.0172323 0.00729921,0.032 0.0219016,0.0442677 0.0185669,0.0155984 0.0637008,0.0318346 0.135335,0.0487323 0.0716654,0.0169016 0.124634,0.0344016 0.158969,0.0524685 0.0343346,0.0180669 0.0612008,0.0427677 0.0805984,0.0740984 0.0194016,0.0313346 0.0290984,0.0700315 0.0290984,0.116134 0,0.0417677 -0.0115984,0.0809016 -0.0348346,0.117366 -0.0232323,0.0364685 -0.0560669,0.0635669 -0.0985315,0.0812992 -0.0424685,0.0177323 -0.0953661,0.0265984 -0.158732,0.0265984 -0.0922323,0 -0.163031,-0.0212992 -0.212465,-0.0639016 -0.0494409,-0.042563 -0.0789409,-0.104661 -0.0885433,-0.186228 -3.14961e-005,3.14961e-005 -3.14961e-005,0 0,0z"/>
        </g>
       </g>
       <g>
        <g>
         <polygon id="_537058752" class="fil3" points="3.09313,3.73126 3.09313,3.0022 3.634,3.0022 3.634,3.12553 3.24043,3.12553 3.24043,3.28717 3.60667,3.28717 3.60667,3.41 3.24043,3.41 3.24043,3.60843 3.64796,3.60843 3.64796,3.73126 "/>
        </g>
       </g>
       <g>
        <g>
         <path id="_537045432" class="fil3" d="M3.743 3.3712c0,-0.0742677 0.0110984,-0.136598 0.0333346,-0.187 0.0165669,-0.0371339 0.0392323,-0.0704331 0.0679331,-0.0999685 0.0287008,-0.0295 0.0601339,-0.0514016 0.0942992,-0.0656339 0.0454331,-0.0192323 0.0978661,-0.0288346 0.157232,-0.0288346 0.107469,0 0.193465,0.0333346 0.258,0.0999685 0.0645,0.0666339 0.0967677,0.159299 0.0967677,0.278 0,0.117701 -0.0320315,0.209799 -0.0960315,0.276268 -0.0640315,0.0664685 -0.149598,0.0997008 -0.256768,0.0997008 -0.108469,0 -0.194732,-0.0330669 -0.258732,-0.0992323 -0.0640354,-0.0661339 -0.0960354,-0.157201 -0.0960354,-0.273268zm0.151768 -0.00496457c0,0.0825669 0.0190669,0.145134 0.0572323,0.187732 0.0381339,0.0425984 0.0865669,0.0639016 0.145299,0.0639016 0.0587323,0 0.106902,-0.0211339 0.144567,-0.0634016 0.0376339,-0.0422677 0.0564685,-0.105665 0.0564685,-0.190232 0,-0.0835315 -0.0183346,-0.145866 -0.055,-0.187 -0.0366654,-0.0410984 -0.0853346,-0.0616654 -0.146031,-0.0616654 -0.0606969,0 -0.109634,0.0207992 -0.146799,0.0624016 -0.0371693,0.0416299 -0.0557362,0.104394 -0.0557362,0.188264z"/>
        </g>
       </g>
      </g>
     </g>
    </g>
   </g>
   <g id="Layer_23">
   </g>
   <g id="Layer_24">
   </g>
   <g id="Layer_25">
   </g>
   <g id="Layer_26">
   </g>
  </g>
 </g>
 <rect class="fil14" width="6.82666" height="6.82666"/>
</svg>
